<?xml version="1.0" encoding="UTF-8"?>
<svg version="1.1" xmlns="http://www.w3.org/2000/svg" width="1024" height="1024">
<path d="M0 0 C337.92 0 675.84 0 1024 0 C1024 337.92 1024 675.84 1024 1024 C686.08 1024 348.16 1024 0 1024 C0 686.08 0 348.16 0 0 Z " fill="#FAF9F8" transform="translate(0,0)"/>
<path d="M0 0 C1.62225087 -0.0023059 3.24450069 -0.0054833 4.86674833 -0.00945449 C9.31407566 -0.01779332 13.76131701 -0.01368134 18.20864463 -0.00748205 C23.00898044 -0.00295485 27.80930152 -0.00994266 32.6096344 -0.01544189 C42.00935374 -0.02433466 51.40904113 -0.0224144 60.80876172 -0.01661661 C68.44818898 -0.01209968 76.0876073 -0.01148736 83.72703552 -0.01366425 C84.81435879 -0.01397071 85.90168205 -0.01427718 87.02195451 -0.01459293 C89.23083739 -0.01523238 91.43972027 -0.01588081 93.64860314 -0.01653811 C114.36082782 -0.02224107 135.07303479 -0.01568406 155.78525656 -0.00493738 C173.55691982 0.0039981 191.32855694 0.00244604 209.10021973 -0.0067749 C229.73838433 -0.01747814 250.37653342 -0.02169175 271.01470041 -0.01555037 C273.21545315 -0.01491328 275.41620588 -0.01428454 277.61695862 -0.01366425 C279.24117322 -0.01320142 279.24117322 -0.01320142 280.89820024 -0.01272924 C288.5283643 -0.01100247 296.1585185 -0.01391704 303.78868103 -0.01862335 C313.08740642 -0.02423277 322.38609805 -0.02271443 331.68481958 -0.01206186 C336.42905942 -0.006806 341.17324296 -0.004747 345.91748238 -0.01136017 C350.26118058 -0.01732343 354.60477035 -0.01403823 358.94845873 -0.00340506 C360.51900995 -0.00117265 362.08957035 -0.00230377 363.66011566 -0.00715664 C375.71636013 -0.04154925 385.27487881 0.7030774 395.17199707 8.25396729 C400.27065532 13.70283641 402.30027767 17.95914207 402.28552246 25.46954346 C402.28544693 26.75064499 402.2853714 28.03174652 402.28529358 29.35166931 C402.28018694 30.75009195 402.27497094 32.14851419 402.26965332 33.54693604 C402.26778796 34.97754365 402.26636461 36.4081519 402.2653656 37.83876038 C402.26154974 41.60183479 402.25172739 45.36487054 402.24066162 49.12792969 C402.2304275 52.96876502 402.22586369 56.80960662 402.2208252 60.65045166 C402.21010429 68.18497449 402.19303903 75.71946547 402.17199707 83.25396729 C401.56922943 83.48060059 400.96646179 83.70723389 400.34542847 83.94073486 C397.58607639 84.97995803 394.82825197 86.02317868 392.07043457 87.06646729 C391.12224854 87.42289307 390.1740625 87.77931885 389.19714355 88.14654541 C383.47478097 90.31512436 377.95039311 92.60683259 372.52355957 95.44146729 C366.51202234 97.51854327 361.12585132 95.92827287 355.42199707 93.69146729 C354.72243896 93.42044189 354.02288086 93.1494165 353.30212402 92.87017822 C335.6836143 85.78959675 322.15912739 72.95556625 314.57434082 55.59771729 C312.65768069 50.4568213 311.16873077 45.41255112 310.11120605 40.0322876 C309.84593361 38.6881076 309.84593361 38.6881076 309.57530212 37.31677246 C309.44221146 36.63604675 309.30912079 35.95532104 309.17199707 35.25396729 C307.86994638 35.24973535 306.5678957 35.24550341 305.22638893 35.24114323 C274.34490986 35.14055092 243.46345296 35.03485769 212.58201335 34.92285034 C208.78420858 34.90908013 204.98640365 34.89535313 201.18859863 34.88165283 C200.43249772 34.87892453 199.6763968 34.87619622 198.89738373 34.87338524 C186.64144245 34.8292642 174.38549192 34.78864645 162.12953444 34.74931467 C149.56151267 34.70890377 136.99350811 34.66474829 124.42551172 34.61708874 C116.66524265 34.5877796 108.90497492 34.56142017 101.14468347 34.53878831 C95.20236395 34.5211461 89.26007172 34.49830374 83.31777763 34.47347641 C80.87398691 34.4640913 78.43018894 34.45642131 75.98638725 34.45054817 C72.66334317 34.44231174 69.34037964 34.42804208 66.0173645 34.41218567 C64.54948815 34.41071851 64.54948815 34.41071851 63.05195773 34.40922171 C61.72403596 34.40101004 61.72403596 34.40101004 60.36928749 34.39263248 C59.60149298 34.38997444 58.83369848 34.3873164 58.04263747 34.38457781 C56.17199707 34.25396729 56.17199707 34.25396729 54.17199707 33.25396729 C54.08562988 34.04158447 53.9992627 34.82920166 53.91027832 35.64068604 C51.48893262 54.41166874 42.34334636 70.75022279 27.97668457 83.14849854 C16.27329515 92.01294696 3.51787016 95.16058931 -10.82800293 96.25396729 C-10.49800293 97.24396729 -10.16800293 98.23396729 -9.82800293 99.25396729 C-9.73604079 101.39736399 -9.70606841 103.54358163 -9.70774841 105.68894958 C-9.70689399 106.34488124 -9.70603956 107.00081289 -9.70515925 107.67662126 C-9.70350978 109.87845628 -9.70901709 112.08021543 -9.71447754 114.28204346 C-9.71475955 115.85882058 -9.7146014 117.43559783 -9.71403503 119.01237488 C-9.71374761 123.297196 -9.7196355 127.58198925 -9.72660899 131.86680388 C-9.73285164 136.3431317 -9.73344705 140.81946013 -9.7346344 145.29579163 C-9.73774502 153.77428047 -9.7459548 162.25275645 -9.75598389 170.73123962 C-9.76715336 180.38287712 -9.77265758 190.03451523 -9.77767932 199.68615758 C-9.78813762 219.54210134 -9.80573188 239.3980335 -9.82800293 259.25396729 C-8.74535156 259.24099609 -7.6627002 259.2280249 -6.54724121 259.21466064 C9.63528179 259.38568508 24.74944276 268.42131014 36.17199707 279.25396729 C45.89654595 289.37298641 53.14033835 303.01080469 53.79699707 317.12896729 C53.83566895 317.81732666 53.87434082 318.50568604 53.91418457 319.21490479 C54.00747873 320.89419974 54.09077945 322.57404495 54.17199707 324.25396729 C75.97295493 324.21680285 97.77374528 324.15694535 119.57456398 324.07006454 C129.6970509 324.03025354 139.81945984 323.99787151 149.9420166 323.98297119 C158.7647436 323.96996537 167.58729917 323.94302805 176.40992963 323.89935422 C181.08157095 323.87671535 185.75300065 323.86105806 190.42470169 323.86208344 C194.82263374 323.86282862 199.22009756 323.84493512 203.61790848 323.81279945 C205.23114893 323.80428673 206.84444183 323.80255986 208.45769501 323.8081646 C210.66318984 323.81480576 212.86719538 323.79688401 215.07254028 323.77294922 C216.3058993 323.76926205 217.53925831 323.76557487 218.80999184 323.76177597 C225.53440443 322.74609786 229.29547844 318.40193144 233.15637207 313.21490479 C236.10046851 308.89004994 238.80001602 304.4293732 241.49768066 299.94781494 C245.54821562 293.226657 249.74321677 286.60618977 253.98449707 280.00396729 C254.66753906 278.93992676 255.35058105 277.87588623 256.05432129 276.77960205 C257.42981406 274.63755017 258.80562554 272.4957029 260.1817627 270.35406494 C278.03931625 242.53816516 295.52480267 214.49604165 312.44152832 186.09771729 C313.12902202 184.9452884 313.81652191 183.7928632 314.50402832 182.64044189 C315.79011644 180.48190026 317.07286558 178.32136443 318.35168457 176.1585083 C318.92789551 175.19098633 319.50410645 174.22346436 320.09777832 173.22662354 C320.59704834 172.38365723 321.09631836 171.54069092 321.61071777 170.67218018 C327.16085619 162.07575782 327.16085619 162.07575782 332.04699707 160.74224854 C337.36052557 160.30271033 340.13703466 161.56708647 344.23449707 164.94146729 C345.66189355 166.2113858 347.08842225 167.48239054 348.50158691 168.76812744 C351.75810182 171.66481696 355.16346117 174.38304884 358.54699707 177.12896729 C359.22512451 177.68801758 359.90325195 178.24706787 360.60192871 178.82305908 C363.99467723 181.59894424 367.31896673 184.12661849 371.17199707 186.25396729 C371.39629395 185.46699463 371.39629395 185.46699463 371.62512207 184.66412354 C374.88210181 175.06880577 381.24150825 167.33413071 387.17199707 159.25396729 C392.07955495 152.50044727 396.32301523 145.66995428 400.17199707 138.25396729 C399.07500488 137.52951416 397.9780127 136.80506104 396.84777832 136.05865479 C395.39303245 135.08256723 393.93862311 134.10597799 392.48449707 133.12896729 C391.7632666 132.65459229 391.04203613 132.18021729 390.2989502 131.69146729 C385.78594695 128.64158382 382.34314817 125.70589398 379.17199707 121.25396729 C378.60866871 117.80358106 378.9346811 115.87692169 380.17199707 112.62896729 C385.82204853 105.91953118 396.67050993 103.76458009 404.73449707 100.87896729 C407.43100947 99.90961103 410.12628895 98.93691331 412.82043457 97.96099854 C413.47080185 97.72553818 414.12116913 97.49007782 414.79124451 97.2474823 C418.9433775 95.73298855 423.01996997 94.10040411 427.07287598 92.34039307 C433.28308386 89.65026475 439.40073046 87.44586921 446.17199707 89.25396729 C452.98398102 96.06595123 452.74479615 106.90925745 453.54699707 115.94146729 C454.47440917 125.74228952 455.68160721 135.31499278 457.90197754 144.91094971 C459.28653987 151.01450572 460.19026989 156.63555147 457.85949707 162.62896729 C456.17199707 165.25396729 456.17199707 165.25396729 453.17199707 167.25396729 C446.5758816 168.51705323 442.45384646 165.41953699 436.94152832 161.98052979 C434.71963098 160.59536952 432.5353468 159.37077694 430.17199707 158.25396729 C416.98381232 170.82153158 409.1191668 189.04853194 400.28918457 204.72271729 C399.5055957 206.11297119 399.5055957 206.11297119 398.70617676 207.53131104 C397.70574504 209.30674301 396.70634619 211.08275752 395.70812988 212.85943604 C394.37328186 215.22630644 393.02488837 217.58487621 391.67199707 219.94146729 C391.28705078 220.63006836 390.90210449 221.31866943 390.50549316 222.02813721 C388.22034929 225.97433945 386.17100589 228.98441487 382.17199707 231.25396729 C376.09916123 232.19017014 372.98883691 231.05834347 368.0826416 227.49371338 C367.39025391 226.96084717 366.69786621 226.42798096 365.98449707 225.87896729 C365.2534375 225.33965576 364.52237793 224.80034424 363.76916504 224.24468994 C361.55376248 222.60159569 359.36075834 220.93233358 357.17199707 219.25396729 C356.51280273 218.7531665 355.8536084 218.25236572 355.17443848 217.73638916 C352.3380946 215.58109038 349.51694024 213.40988486 346.71105957 211.21490479 C344.91459149 209.82747867 343.06063189 208.51305716 341.17199707 207.25396729 C340.89597656 207.83920166 340.61995605 208.42443604 340.33557129 209.02740479 C339.22085052 211.16048356 338.00354995 212.96159178 336.55480957 214.87896729 C336.03644531 215.5751416 335.51808105 216.27131592 334.98400879 216.98858643 C334.42729492 217.73616211 333.87058105 218.48373779 333.29699707 219.25396729 C327.93371866 226.55958588 323.13757693 234.06604198 318.5423584 241.87261963 C315.45786131 247.11257884 312.30205801 252.28320861 308.98449707 257.37896729 C308.54702148 258.05129395 308.1095459 258.72362061 307.65881348 259.4163208 C304.86528106 263.69302745 302.04812229 267.95398509 299.23059082 272.21490479 C287.87303309 289.42743883 277.02999996 306.89271105 266.85559082 324.83599854 C266.49470871 325.4716272 266.1338266 326.10725586 265.76200867 326.762146 C264.01029501 329.85011271 262.2665003 332.94208412 260.5369873 336.0425415 C252.51993611 350.27154812 252.51993611 350.27154812 246.04699707 354.06646729 C245.38441895 354.4647876 244.72184082 354.86310791 244.03918457 355.27349854 C240.86666288 356.93940428 238.29110628 357.3808618 234.77027035 357.39377499 C233.86478134 357.39946623 232.95929233 357.40515747 232.02636427 357.41102117 C231.03027743 357.41220105 230.0341906 357.41338093 229.00791931 357.41459656 C227.95068808 357.41968438 226.89345685 357.4247722 225.80418831 357.43001419 C222.24376848 357.44577308 218.683369 357.45427285 215.1229248 357.46270752 C212.57716237 357.47224325 210.03140125 357.48213429 207.48564148 357.49235535 C199.83235572 357.52106117 192.17906712 357.54082761 184.52574715 357.55774769 C182.36347957 357.56254354 180.20121249 357.56752677 178.03894544 357.57255292 C164.60742474 357.6035277 151.1758997 357.63020926 137.74435329 357.6469717 C134.63323903 357.65092112 131.52212485 357.65492412 128.41101074 357.65899658 C127.63777051 357.66000494 126.86453028 357.6610133 126.06785852 357.66205222 C113.54904495 357.67904973 101.03042938 357.72014842 88.51171242 357.77101957 C75.65428867 357.82283649 62.79696663 357.85191941 49.93943936 357.85916859 C42.72233096 357.86382601 35.50554666 357.87852587 28.28854179 357.91891289 C21.49637599 357.95687652 14.70485959 357.96418945 7.91256905 357.95090675 C5.42211827 357.95096071 2.93164302 357.96125893 0.44128418 357.98265839 C-2.96482236 358.01035761 -6.36891557 358.00082098 -9.77503967 357.98222351 C-10.75551146 357.99901844 -11.73598324 358.01581337 -12.74616629 358.03311723 C-20.02009167 357.93419121 -25.10849746 355.75223147 -30.82800293 351.25396729 C-35.94734445 345.70549212 -39.07401105 340.37477676 -39.08527184 332.67913342 C-39.09494517 331.00479615 -39.09494517 331.00479615 -39.10481393 329.2966339 C-39.10171673 328.07544256 -39.09861953 326.85425122 -39.09542847 325.59605408 C-39.09995958 324.29477328 -39.10449069 322.99349248 -39.10915911 321.65277892 C-39.12139515 318.04239302 -39.12112794 314.43209974 -39.11877036 310.82169783 C-39.11836235 306.92723958 -39.12939989 303.03281109 -39.1388855 299.1383667 C-39.15549983 291.50891179 -39.16099524 283.87948778 -39.16211025 276.25001629 C-39.16306053 270.04834941 -39.16716982 263.84669273 -39.17351151 257.64502907 C-39.19112518 240.06241838 -39.20035019 222.4798321 -39.19885056 204.89721253 C-39.19877064 203.94928974 -39.19869073 203.00136696 -39.1986084 202.02471924 C-39.19852664 201.07563912 -39.19844488 200.126559 -39.19836064 199.14871887 C-39.19754772 183.76729948 -39.21668637 168.38597802 -39.24488513 153.00458696 C-39.27361051 137.21132974 -39.28742561 121.41812028 -39.28569758 105.62483627 C-39.28503355 96.75800906 -39.29053137 87.8912845 -39.31205368 79.02448082 C-39.33026094 71.47502461 -39.3346166 63.92571758 -39.32103483 56.37624892 C-39.31450281 52.52508688 -39.31439617 48.67421109 -39.33174133 44.82307625 C-39.35036036 40.64611113 -39.33792375 36.46980932 -39.32247925 32.29283142 C-39.33276637 31.07833224 -39.3430535 29.86383307 -39.35365236 28.61253089 C-39.28530423 20.25962849 -38.03424551 14.9664587 -32.45300293 8.50396729 C-22.32440785 -0.17768564 -12.72397821 -0.03931613 0 0 Z " fill="#101010" transform="translate(300.8280029296875,334.74603271484375)"/>
<path d="M0 0 C2.63125061 2.29342278 4.90223289 4.36696579 6.47265625 7.5078125 C6.54460494 10.39151583 6.56557333 13.25020914 6.53515625 16.1328125 C6.53064453 16.93460937 6.52613281 17.73640625 6.52148438 18.5625 C6.50968793 20.54430256 6.4917523 22.52606683 6.47265625 24.5078125 C8.32890625 24.848125 8.32890625 24.848125 10.22265625 25.1953125 C26.31903379 28.87304508 39.94781674 38.14612412 48.91015625 52.0703125 C50.67851671 55.96070551 51.02025867 58.28345099 50.47265625 62.5078125 C47.85140566 68.12230635 44.33275777 69.43384925 38.73828125 71.53515625 C33.80771897 73.00370889 29.49861761 73.99784406 24.47265625 72.5078125 C21.20805744 69.91259362 18.85872878 66.909113 16.47265625 63.5078125 C12.42365918 57.76084891 7.08744801 54.71274309 0.47265625 52.5078125 C-10.26675905 51.68170363 -19.91966321 51.98632536 -29.52734375 57.5078125 C-33.10072687 60.9223786 -33.75656539 63.60394031 -34.02734375 68.3828125 C-33.73245354 73.5589118 -33.1184514 77.607267 -29.52734375 81.5078125 C-20.74495124 87.96102135 -10.36089209 89.94992587 0.07226562 92.31567383 C17.39681686 96.25271712 37.07481913 101.76501978 47.47265625 117.5078125 C54.55425555 129.74831881 56.18504904 141.29848332 53.85546875 155.1875 C50.55556941 167.36500466 43.01936857 176.72459555 32.47265625 183.5078125 C25.12533322 187.48422349 17.55736022 190.42732434 9.47265625 192.5078125 C9.446875 193.59320312 9.42109375 194.67859375 9.39453125 195.796875 C9.33821887 197.24222599 9.28087225 198.68753694 9.22265625 200.1328125 C9.20847656 200.84566406 9.19429688 201.55851563 9.1796875 202.29296875 C8.90468335 208.28805931 6.84617179 211.75453448 2.91015625 216.3203125 C-1.239083 219.74794492 -7.48122971 218.91535475 -12.52734375 218.5078125 C-17.59631629 216.45865339 -20.52613805 212.77369908 -22.71484375 207.8203125 C-23.79574589 203.41355764 -24.18809143 199.025225 -24.52734375 194.5078125 C-25.68234375 194.1778125 -26.83734375 193.8478125 -28.02734375 193.5078125 C-44.3442144 188.05169802 -61.10728009 179.10166197 -70.52734375 164.3828125 C-71.98820135 160.18284691 -72.62600911 156.8506286 -70.671875 152.68359375 C-66.22004901 146.36884981 -58.78949682 144.15795618 -51.52734375 142.5078125 C-47.48544881 141.81500568 -44.10830279 141.39697273 -40.62915039 143.84155273 C-38.77326838 145.70772091 -37.11233178 147.6431113 -35.46484375 149.6953125 C-29.92723422 156.3544632 -23.99030838 162.83955914 -14.8828125 163.78125 C-3.39738751 164.14946338 6.91200612 161.18258358 16.01953125 154.03515625 C19.76071615 150.10288933 19.9078789 146.19227513 19.78515625 140.9765625 C19.31563091 137.26731233 17.95925053 135.25615354 15.47265625 132.5078125 C10.67906895 128.85798387 5.88381698 127.01422397 0.22265625 125.1953125 C-0.67831787 124.89898926 -1.57929199 124.60266602 -2.50756836 124.29736328 C-11.01113846 121.55790969 -19.6270883 119.25100034 -28.29199219 117.08081055 C-42.95090869 113.3172521 -53.92523252 108.97225902 -61.8828125 95.6796875 C-68.37156443 83.16456501 -71.33854072 69.62074176 -67.15234375 55.8203125 C-60.9887183 41.48177329 -50.40088366 33.04324698 -36.20703125 27.234375 C-32.3637879 26.19232943 -28.48579042 25.86376084 -24.52734375 25.5078125 C-24.63175781 23.57228516 -24.63175781 23.57228516 -24.73828125 21.59765625 C-24.7945893 19.8802607 -24.84918617 18.16280845 -24.90234375 16.4453125 C-24.95261719 15.59775391 -25.00289063 14.75019531 -25.0546875 13.87695312 C-25.18873272 8.09066764 -24.1589468 5.05028501 -20.21728516 0.78735352 C-15.07437654 -3.10660547 -5.36470225 -3.16741308 0 0 Z " fill="#111110" transform="translate(490.52734375,406.4921875)"/>
<path d="M0 0 C3.95058234 1.05633809 5.79179736 2.65228261 8.52734375 5.67578125 C9.8453015 8.31169675 9.66531003 10.28917254 9.6812439 13.24227905 C9.68984436 14.42564346 9.69844482 15.60900787 9.70730591 16.82823181 C9.71156586 18.13321121 9.71582581 19.43819061 9.72021484 20.78271484 C9.72811511 22.16566678 9.73638401 23.54861664 9.74499512 24.93156433 C9.7712201 29.47909576 9.78652143 34.02663643 9.80078125 38.57421875 C9.8061404 40.13862743 9.8115179 41.70303605 9.8169136 43.26744461 C9.83854144 49.77333719 9.85727948 56.27922728 9.868536 62.78514671 C9.88478467 72.11550134 9.9179853 81.44544014 9.97493684 90.77563798 C10.01360058 97.3327992 10.03316432 103.88984902 10.03845656 110.44712126 C10.04211447 114.36539185 10.05418166 118.283219 10.0865593 122.20136642 C10.11657848 125.88689456 10.12297444 129.57170953 10.11117554 133.25733376 C10.11084873 135.25571478 10.13535448 137.25405139 10.16055298 139.25227356 C10.1522345 140.44127762 10.14391602 141.63028168 10.13534546 142.85531616 C10.13865561 143.88881384 10.14196575 144.92231152 10.14537621 145.9871273 C9.30444515 149.64546688 7.5999946 150.65816372 4.52734375 152.67578125 C1.54019237 154.16935694 -1.51153561 153.9008156 -4.78515625 153.92578125 C-6.10128906 153.9515625 -7.41742187 153.97734375 -8.7734375 154.00390625 C-12.65302163 153.65978263 -14.46961865 153.1044674 -17.47265625 150.67578125 C-19.75533185 147.20380959 -19.74557872 144.14735603 -19.79150391 140.05444336 C-19.8015382 139.39354297 -19.81157249 138.73264257 -19.82191086 138.0517149 C-19.85286354 135.85219369 -19.86984318 133.65279579 -19.88671875 131.453125 C-19.90567423 129.89268023 -19.92543599 128.33224508 -19.94595337 126.77182007 C-19.99825541 122.58530092 -20.03797348 118.39875493 -20.07435608 114.21207047 C-20.10537878 110.75194685 -20.14214704 107.29189313 -20.17870331 103.8318243 C-20.26947375 95.19470943 -20.34565746 86.55753497 -20.41335297 77.92021084 C-20.45475718 72.69118113 -20.50376963 67.46229324 -20.55957031 62.23339844 C-20.62269856 56.22636706 -20.67075104 50.21946574 -20.70281982 44.21218872 C-20.71593967 42.07989039 -20.73380671 39.94761547 -20.75665283 37.81539917 C-20.78616519 34.88980454 -20.79623384 31.96478782 -20.80078125 29.0390625 C-20.8130777 28.21119232 -20.82537415 27.38332214 -20.83804321 26.53036499 C-20.80141253 16.87349159 -17.75673894 9.6000367 -11.078125 2.60546875 C-7.34778611 -0.15733097 -4.54898596 -0.42746432 0 0 Z " fill="#111111" transform="translate(734.47265625,541.32421875)"/>
<path d="M0 0 C5.9191186 3.4210499 10.36983533 7.58969899 13 14 C13.55091392 17.220352 13.54773816 20.37410651 13.51757812 23.63549805 C13.5245874 24.57619141 13.53159668 25.51688477 13.53881836 26.48608398 C13.55634505 29.57826733 13.54479717 32.66952702 13.53125 35.76171875 C13.53394576 37.91689733 13.53782888 40.07207472 13.54284668 42.22724915 C13.54873394 46.73535792 13.5402009 51.24314895 13.52148438 55.7512207 C13.4986544 61.53189357 13.51184875 67.31182521 13.53577423 73.09247112 C13.55021785 77.53883975 13.54563347 81.98503213 13.53526306 86.43140602 C13.53259395 88.56328227 13.535872 90.6951745 13.54518127 92.82703209 C13.55532753 95.80268254 13.53987417 98.77712521 13.51757812 101.75268555 C13.52567505 102.63432877 13.53377197 103.51597198 13.54211426 104.42433167 C13.45913899 110.39447648 13.45913899 110.39447648 11.09265137 113.51545715 C6.7072512 116.62649349 2.8643311 116.28974461 -2.375 116.375 C-3.67050781 116.43107422 -3.67050781 116.43107422 -4.9921875 116.48828125 C-11.37293185 116.5769027 -11.37293185 116.5769027 -14.5390625 113.6640625 C-17.20976252 108.79396247 -17.16015695 104.48436948 -17.17700195 99.06567383 C-17.18357315 98.15149689 -17.19014435 97.23731995 -17.19691467 96.29544067 C-17.21664619 93.26597003 -17.2283109 90.236549 -17.23828125 87.20703125 C-17.24235678 86.17167425 -17.2464323 85.13631725 -17.25063133 84.0695858 C-17.27149294 78.58797785 -17.28579344 73.10639493 -17.29516602 67.62475586 C-17.30622157 61.96999274 -17.34061161 56.31562408 -17.38033772 50.66100025 C-17.40651814 46.3071572 -17.41485921 41.95340786 -17.41844749 37.59949303 C-17.42331091 35.51555408 -17.43491787 33.43161924 -17.45348549 31.34775734 C-17.47790349 28.42528936 -17.47690673 25.50383817 -17.4699707 22.58129883 C-17.48278076 21.72645401 -17.49559082 20.87160919 -17.50878906 19.99085999 C-17.45310986 13.52787343 -15.85692993 8.40674529 -11.65881824 3.4007082 C-7.89161036 -0.18570758 -5.0336033 -1.02378372 0 0 Z " fill="#111111" transform="translate(656,579)"/>
<path d="M0 0 C2.63016161 2.1727422 4.47336894 3.94673788 6 7 C6.23459949 11.06781298 6.22841696 15.13737036 6.24023438 19.21142578 C6.24989756 21.22861641 6.2809003 23.24476916 6.3125 25.26171875 C6.32023438 27.18177734 6.32023438 27.18177734 6.328125 29.140625 C6.3374707 30.31141602 6.34681641 31.48220703 6.35644531 32.68847656 C5.95585902 36.41008789 4.93934853 38.81654109 3 42 C-0.74363237 43.87181618 -5.19192006 43.31428147 -9.3125 43.375 C-10.73852539 43.43107422 -10.73852539 43.43107422 -12.19335938 43.48828125 C-19.25280449 43.5770793 -19.25280449 43.5770793 -23.10546875 40.6015625 C-26.14898429 36.42221951 -26.59881218 33.10393822 -26 28 C-24.53125 24.578125 -24.53125 24.578125 -22.5 21.25 C-22.14268799 20.65799805 -21.78537598 20.06599609 -21.41723633 19.45605469 C-20.29955563 17.62298991 -19.15436236 15.81014989 -18 14 C-17.63181152 13.41476562 -17.26362305 12.82953125 -16.88427734 12.2265625 C-8.5072616 -1.02673847 -8.5072616 -1.02673847 0 0 Z " fill="#131313" transform="translate(597,650)"/>
<path d="M0 0 C1.77007714 -0.08114106 3.54122098 -0.13925505 5.3125 -0.1875 C6.29863281 -0.22230469 7.28476562 -0.25710938 8.30078125 -0.29296875 C11 0 11 0 12.85546875 1.51171875 C13.23316406 2.00285156 13.61085938 2.49398437 14 3 C12.68 3.33 11.36 3.66 10 4 C10 3.34 10 2.68 10 2 C6.04 2.66 2.08 3.32 -2 4 C-1.34 2.68 -0.68 1.36 0 0 Z " fill="#2A2A2A" transform="translate(726,542)"/>
</svg>
